<svg id="Layer_1" data-name="Layer 1" xmlns="http://www.w3.org/2000/svg" viewBox="0 0 820 820"><path d="M542,442.13c4.64,5.52,8.88,10.29,12.82,15.3,17,21.55,27.91,46.2,36.43,72,6.61,20,12.83,40.1,18.39,60.39,2.94,10.75-.16,24.75-17.17,29,.14,2.82.39,5.78.41,8.73.09,12.48.52,25-.08,37.43-.17,3.48-2.63,7.77-5.4,10a206.41,206.41,0,0,1-26,18.41c-5.93,3.43-7.3,7.69-7.37,13.74-.15,12.87-.5,25.74-1.16,38.6-.56,10.78-2.93,12.67-13.64,12.78-7.25.07-14.51.16-21.72.79-1.4.12-3.62,2.78-3.65,4.3a52.86,52.86,0,0,0,1.47,11.34c2.69,13.28-3.76,22.58-13.55,30-2.65,2-6.72,2.94-10.16,3q-39.87.75-79.74.78a8.69,8.69,0,0,1-6.35-3.36,87.16,87.16,0,0,1-7.19-14.44c-4.35-10.87-2-20,7.6-27.17a41.84,41.84,0,0,0,4.74-4.85l-.6-1.57c-13.58-.41-27.16-.92-40.74-1.16-3.86-.07-2.89,2.94-2.58,5.32,1,7.56,2.56,15.12,2.77,22.71.32,12-13.25,25.08-25.26,25.08-25.81,0-51.62-.11-77.43.1-4.71,0-7.59-1.36-9.26-5.81-1.82-4.85-4.48-9.42-5.94-14.36-2.44-8.28-1.28-15.85,5.79-21.9,5-4.26,9.62-9,15.25-14.24-2.26-.84-3.56-1.58-4.94-1.78-8.94-1.3-17.91-2.46-26.86-3.72-7.08-1-9.69-3.74-9.14-10.85,1.55-20.25,3.81-40.45,5-60.72.58-10.13-.27-20.4-1.22-30.54-.21-2.31-3.13-5-5.48-6.36-6.56-3.81-9.48-8.68-9.32-16.65.6-29.06,7.29-56.81,17.44-83.76,6-15.9,13.28-31.32,20.07-46.92a14.53,14.53,0,0,1,3-4.48c11.68-11.51,15.74-26.72,20.1-41.71.48-1.64-1.1-4.88-2.69-6-14.7-10.09-28.67-21.09-36.74-37.35-6-12.17-10.6-25.1-15.47-37.82-1.66-4.33-3-8-7.63-10.58a27.09,27.09,0,0,1-13.08-18.72c-4.38-22.52-7.83-45.12-1.08-67.91,3.46-11.67,9.5-21.51,20.23-27.21,11.93-6.33,14.78-16.7,15.34-28.66.17-3.62,0-7.26.15-10.88.19-4.18.12-7.85-4.87-9.72-1.63-.61-3-3.32-3.47-5.31a40.88,40.88,0,0,1-1.38-10.71c.27-13.27.13-26.61,1.52-39.77,1.6-15.14,10.09-27.68,17.95-40.28.85-1.36,1.71-2.71,2.51-4.11a10.91,10.91,0,0,0,.22-2.41l-24.13-1.46c-.52,4.7-.79,8.45-1.4,12.15-.28,1.73-.73,4-1.93,4.92-7.05,5.64-5.62,13.51-6.16,21s-.95,14.87-2.53,22.07c-.66,3-3.73,6.82-6.52,7.71-16.11,5.13-31,2.53-43.52-9.4a31,31,0,0,1-6-8.92c-2.9-5.89-2.11-11.15,3.3-15.59,5.9-4.84,11.65-9.9,17.14-15.2,1.46-1.4,3-4.59,2.36-6C178.28,87.9,181.83,77.63,187.8,68c2.95-4.77,1.6-7.08-2.54-9.48-2.95-1.71-5.54-4.06-8.51-5.74C166.61,47,164.7,37.15,164.11,27c-.36-6.14,3.15-8.88,9.48-9q91.83-1.52,183.66-3c51.13-.75,102.26-1.22,153.38-1.92,8.44-.11,16.86-.78,25.3-1.15A50.48,50.48,0,0,1,564,19.16q45.3,26.42,90.49,53.05c7.88,4.63,9,10.06,3.16,17.24-4.14,5.13-8.92,8.78-16.38,8.4-15.47-.81-31-.89-46.47-1.22a45.3,45.3,0,0,0-5,.53,65.47,65.47,0,0,0,3,6.72c9.3,15.82,14.36,33,16.57,51.11.2,1.59,1.8,4.19,2.94,4.3,7,.65,7.9,5.48,7.78,10.79-.47,21.33-.69,42.68-1.88,64-.71,12.69-.15,24.1,7.81,35.26,10.63,14.93,11,32.89,9.64,50.52a230.48,230.48,0,0,1-4.36,30.39c-3.27,15.33-12.6,26.13-26.75,33-2.29,1.11-4.8,3.21-5.75,5.46-6.78,16-18.22,27.82-32.37,37.34C558.51,431.24,550.61,436.41,542,442.13ZM535.41,398l-1.28,1.08v0l-4.93,3.62L527,404.32l-27.82,16.81-2.47,1c-14.81,4.49-29.77,8.68-45.38,8.41-27.36-.49-54.73-1.1-82.05-2.45-17.61-.86-35.44-1.65-52.65-5.09-31.26-6.25-52.73-24.59-61-56.39-8.1-31.17-8.1-62.86-5.61-94.65.42-5.34,2-10.64,3.47-15.84,5.11-18.12,19.52-27.58,34.73-35.73,7.39-3.95,15.81-6,24.42-9.13-14.15-3-27.77-6-41.44-8.64a6.23,6.23,0,0,0-4.88,1.63c-3.29,3.47-6.87,7-9.08,11.13-13.78,25.94-19.08,54-19.45,83.08-.06,5.24.45,10.55-.19,15.71a129,129,0,0,0,9,66.14c12.51,30.44,34.18,51,66.53,58.15,14.37,3.17,29.49,3.43,44.31,4,30.77,1.17,61.56,1.72,92.35,2.38,2.24.05,5.31-.3,6.62-1.72,10.68-11.61,24.65-13.6,39.17-13.74,8-.08,16,.65,24.08,1l2.45.15c8.21,1.48,14.37-3,20.63-7.13l2.36-1.34,4.84-3.62,2.4-1.3,1.37-1.07,2.27-1.31,3.63-2.38h0l7.26-4.83h0c4.53-4,9.84-7.39,13.45-12.09,7.63-9.93,6.78-14.31-2.57-23h0l-2.22-4a.86.86,0,0,0-.22-.81q-2-9.63-3.92-19.26c-.08-1.24-.15-2.48-.22-3.72,0-2.78,0-5.56-.16-8.34-.75-16.42-2.44-33,2.84-48.92,3.55-10.69,9-20.76,13.56-31.11h0c.4-.87,1.29-1.84,1.12-2.57-3.65-15.33-7.35-30.65-11.32-45.9-.25-1-2.76-1.35-4.22-2l-2.48.23-13.33,1.87-2.45.19-2.31.15-2.47.21-13.32,1.92-2.47.11-21.65,2.57-2.5.24-14.51,1.95-2.41.2-7.57.38c0,.48,0,1,0,1.46l14.82,4.62,2.36.58L519.63,231l2.12,1.29,9.94,7.21,0,0,1.26,1.28,1.13,1.13,1.3,1.25,6,6,6.06,7.33,0,0,2.47,3.68,1.22,2.31,7,11.5.27,1.79,6.33,26.54q0,10.36,0,20.73c-.46,4.16-1,8.32-1.38,12.49-.88,9.93-1.66,19.86-2.47,29.8-.32.83-.63,1.66-.94,2.49q-3.17,6-6.32,12l0,0-3.61,4.81,0,0-1.13,1.19-8.61,8.33L535.49,398ZM458,731.39l12,.41c6.62,1.09,13.24,2.21,19.87,3.25,3.12.49,6.1,1.58,7.18-3.46,1.9-8.87,1.21-16.3-2.52-17.52a4.81,4.81,0,0,0-1.18-.22q-11.09-.68-22.16-1.31c-3,0-6.07-.39-9,.09-1.55.25-3.89,1.82-4.08,3.07-.76,4.9-.8,9.91-1.1,14.88ZM194.23,142.51l.54.17.57-.11c8.29,2.2,9.23,1.6,9.48-6.56.17-5.63-.33-11.31.31-16.88s1-12.11,3.85-16.72c3.74-6,4.54-11.74,4.57-18.4,0-6.37,1.84-12.42,9.36-14.29,18.8,5.46,38.26,3.53,57.41,5,14,1.06,28.12,1,42.18,1.3,18.5.46,37,.8,55.5,1.27,12.05.31,24.1.83,36.15,1.15q47.34,1.28,94.67,2.47c12.46.34,24.91.84,37.36,1.16,17.89.47,35.79.79,53.68,1.27,10.65.29,21.28.8,31.92,1.14,3.47.11,6.94,0,10.41,0a24.32,24.32,0,0,0-8-8C616.39,65.85,598.61,55.26,580.66,45c-6-3.42-12.46-5.94-18.72-8.87-1.37-1.61-2.51-3.54-4.16-4.8-6.43-4.86-13.77-5.23-21.65-5-30.6.77-61.22.95-91.84,1.36-60.22.8-120.44,1.73-180.66,2.37-28.17.3-56.35.05-84.53.05l-1.23,2.56,5.35,6.19c6.48,4.77,13.19,9.24,19.3,14.43,2.41,2.05,3.46,5.69,5.13,8.61-3,4.87-5.93,9.81-9.1,14.58-4.14,6.25-6.27,12.45-.67,19,.88,4.93,2.76,9.94-1.24,14.44L180.39,124l-7.66,6.36C177.36,139.8,185.23,142.17,194.23,142.51Zm266.5,541,0,1.14q0,6,.07,12.09c.85.92,1.64,2.54,2.58,2.64,3.59.38,7.24.33,10.86.35,7.76,0,15.53,0,23.24,0V665L476.13,664l-14.32-.8c-.26,4.94-.49,9.21-.73,13.49l-.25,3.1C460.79,681.05,460.76,682.28,460.73,683.51ZM621.05,291.37l-4.32-10.8c-4.52-5.24-8.87-10.65-13.73-15.55-.78-.79-4.77,0-5.7,1.22-6.62,8.77-11.79,18.68-12,29.65-.45,20.23.23,40.5.92,60.74.25,7.58,5.19,13.77,9.83,14.3,4.43.5,14.06-6.25,16.25-11.39q2.1-4.12,4.22-8.25a19,19,0,0,0,1.14-2.69C622.2,329.73,624,310.69,621.05,291.37Zm-153.36,359c9.57.61,19.15,1.2,28.72,1.84,3,.2,5.26-.33,5.15-4q-.29-9.29-.59-18.6c-2.76-.29-4-.29-5.1-.54-7.49-1.63-15.79-.43-22.07-6.27-2.39-11.1-4.77-22.2-7.27-33.79-9.57,3.51-16.1,9.62-18.9,19.06-4,13.51-2.77,27.39-2.69,41.06a12,12,0,0,0,2.3.75c1.4.08,2.81,0,4.22,0l1.61.45ZM264.19,786.43c1.93,4-.24,10.71,7.65,10.65,24.17-.18,48.34-.15,72.52-.33a7.91,7.91,0,0,0,4.77-1.69c5-4.32,8.61-9.25,7.12-16.6-1.32-6.49-1.8-13.14-3.16-19.61a5.84,5.84,0,0,0-4.18-3.58c-14.88-.69-29.77-1-44.66-1.47-6.48-1.88-11.78-.49-16.76,4.45A263.35,263.35,0,0,1,267.21,776C263.5,779,262.62,782.2,264.19,786.43Zm192.27-41.52c-4.45,1.74-9.51,2.66-13.23,5.39-10.11,7.45-19.57,15.78-29.47,23.53-4.06,3.18-5.11,6.8-3.36,11.47,2.47,10.22,2.47,10.43,12.17,10.39,21-.08,41.92-.44,62.88-.62,13-.12,18.83-7,16.76-19.92-.57-3.58-1.24-7.13-1.82-10.71C498,749.51,498,749.2,483.14,747,474.33,745.7,465.36,745.56,456.46,744.91ZM436.17,419.44c32.72,1,61.18-10.29,87.22-29.44,15.25-11.22,23.83-26,26-44.41,1.33-11.36,1.19-22.9,1.58-34.36.56-16.2-4-30.94-13.09-44.31-11.55-17.07-26.53-29.4-47.11-34a8.94,8.94,0,0,0-1.64-.69,409.74,409.74,0,0,0-80.89-8.06c-30.4,0-60.84.52-91.17,2.43-10.19.64-20.48,5.37-29.95,9.86-8.34,4-15.93,10.41-18.58,19.74-3,10.51-6,21.49-6,32.27A669.7,669.7,0,0,0,266,356c1.6,15.62,7.12,31,20.88,40,9.69,6.35,21.17,10.58,32.41,13.82C357.52,420.84,396.88,420.13,436.17,419.44Zm-4.72,241.79c0-13.24-.36-25.92.15-38.56a77.33,77.33,0,0,1,3.3-18.88c3.75-12.49,12.32-21,24.19-26.07,3.57-1.54,5.64-3.49,4.88-7.7-2.74-15.17-5.26-30.37-8-45.52-2.89-15.73-6.24-31.37-8.83-47.15C446.2,471.82,447,466,447,460c-7.48,0-14.27.22-21-.06-9.06-.36-15.56,5.08-22.85,9.08a159.72,159.72,0,0,1-22.27,10.29c-14.75,5.32-34.59.13-42.41-12.83-3.5-5.8-7.67-9.42-15.4-10.1-9.38-.83-18.52-4.35-28-6.76-4.45,12.41-10.09,24.8-13.3,37.79-5.74,23.31-10.44,46.89-14.8,70.5-3.81,20.66-6.79,41.48-9.66,62.29-2.08,15.07-3.39,30.24-5,45.37-1.57,14.33-3.32,28.64-4.64,43-.76,8.31-.82,16.68-1.24,26,16.48,1.56,32.37,3.32,48.3,4.49,15.61,1.14,31.26,1.82,46.9,2.43,24.9,1,49.82,1.41,74.7,2.71,9,.47,16.71-1.34,23.21-7.39a12.33,12.33,0,0,0,3.86-6.71q2.23-17.57,3.59-35.25c.79-10.34,1-20.72,1.53-31.27Zm-30-492.58c18.65-1,37.3-1.85,55.94-3,16.4-1,32.8-2.22,49.16-3.78,27.5-2.61,55-5.58,82.46-8.35,4-.4,6-1.39,5.1-6.42-3-15.9-9.71-30.19-18.12-43.73-1.77-2.85-5.4-6.25-8.32-6.4-25.08-1.29-50.2-1.91-75.31-2.69q-21.09-.66-42.19-1.2c-18.3-.45-36.6-.78-54.9-1.26-10.44-.28-20.87-.94-31.31-1.12q-44.67-.8-89.36-1.26c-1.63,0-4,.52-4.79,1.66-6.34,9.28-12.87,18.5-18.31,28.31-2.84,5.12-3.82,11.34-5.21,17.17-1,4.12.6,6.45,5.32,7.48,21.54,4.7,42.91,10.22,64.48,14.75C344.2,164.67,372.57,168.72,401.45,168.65ZM501,442.53c-4.9.5-9.38.52-13.65,1.47-14.81,3.27-23.05,4.06-26,23.28-2.2,14.34,2.16,28.12,4.92,42q5.63,28.25,11,56.52c2.8,14.52,5.59,29.06,8.14,43.63.67,3.82,2.74,5,6.17,5.08,14,.38,27.94,1.29,41.89,1.12,19.19-.23,37.72-4.57,55.93-10.46,4.91-1.59,6.73-4.95,6.35-9.6a45.31,45.31,0,0,0-2-10.6c-8.87-26.65-17.22-53.51-27.12-79.78-8.32-22.07-22-41-39.63-56.89a11.2,11.2,0,0,0-5.14-2.94C514.8,444.17,507.63,443.4,501,442.53ZM595.78,166.8c-11.42,1.24-22.08,2.48-32.77,3.53-25.11,2.48-50.2,5.11-75.34,7.22-23.16,1.95-46.36,4.21-69.58,4.66-21.44.42-43.18.39-64.34-2.62-29.29-4.16-58.16-11.26-87.21-17.16-6.44-1.3-12.83-2.82-20.78-4.59-.36,8-.68,15.27-1,22.81,9.4,2.57,18.09,4.9,26.76,7.33,38.7,10.81,78,16.37,118.31,15.25,27.59-.77,55.21-.06,82.82-.2a162,162,0,0,0,18-1.39c15.49-1.82,31-3.88,46.45-5.76,17.49-2.13,35-4,52.44-6.44,2.29-.32,5.66-3.18,6-5.26C596.34,178.73,595.78,173.07,595.78,166.8ZM513.13,658.54c-1,6.43-2.86,12.75,4.45,17.31,2.65,1.65,4.31,4.78,6.75,6.86,10.64,9.08,9.74,10.64,22.4,3.58,11.16-6.23,21.34-14.21,31.85-21.57a5.15,5.15,0,0,0,2-3.86c-.92-12.21-2.09-24.4-3.13-36l-64.86,6.92c.83,2.57,1.33,5.81,2.85,8.46,5.19,9,16.65,6.85,23.46,12.5V664ZM538.44,704c-12.09,2.91-18.5-7.29-27.29-14.67,0,18.22-.06,35.09.11,51.95,0,1.27,1.67,3.59,2.62,3.62,7.77.3,15.55.17,24.56.17ZM227.7,253.94c-5.88,5.3-10.87,12.88-11.41,21.68a422.57,422.57,0,0,0,.09,45c.29,6.39,2.81,12.68,4.31,19l1.39-.24C224,310.78,225.84,282.14,227.7,253.94Zm13.7,373.7,15.29-97.85-1.47-.41c-4.63,15.48-9.56,30.88-13.8,46.47-3.78,13.92-7,28-6.08,42.65C235.59,622.64,235.47,627.16,241.4,627.64ZM607,200.41c-5,1-8.94,1.91-12.89,2.35-3.58.41-4.36,1.9-3.38,5.24,2.71,9.26,5.18,18.59,7.82,27.86,1.2,4.21,2.59,8.37,3.89,12.55l2.44-.29C605.58,232.44,606.27,216.76,607,200.41ZM350.16,458.21c5.68,11.94,29.46,12.1,41.81,0Z" style="fill:#060505"/><path d="M431.45,661.23l17,2.33c-.49,10.55-.74,20.93-1.53,31.27q-1.35,17.67-3.59,35.25a12.33,12.33,0,0,1-3.86,6.71c-6.5,6.05-14.22,7.86-23.21,7.39-24.88-1.3-49.8-1.74-74.7-2.71-15.64-.61-31.29-1.29-46.9-2.43-15.93-1.17-31.82-2.93-48.3-4.49.42-9.3.48-17.67,1.24-26,1.32-14.35,3.07-28.66,4.64-43,1.65-15.13,3-30.3,5-45.37,2.87-20.81,5.85-41.63,9.66-62.29,4.36-23.61,9.06-47.19,14.8-70.5,3.21-13,8.85-25.38,13.3-37.79,9.46,2.41,18.6,5.93,28,6.76,7.73.68,11.9,4.3,15.4,10.1,7.82,13,27.66,18.15,42.41,12.83A159.72,159.72,0,0,0,403.06,469c7.29-4,13.79-9.44,22.85-9.08,6.78.28,13.57.06,21,.06,0,6-.76,11.81.15,17.34,2.59,15.78,5.94,31.42,8.83,47.15,2.77,15.15,5.29,30.35,8,45.52.76,4.21-1.31,6.16-4.88,7.7-11.87,5.1-20.44,13.58-24.19,26.07a77.33,77.33,0,0,0-3.3,18.88C431.09,635.31,431.45,648,431.45,661.23Z" style="fill:#272727"/><path d="M436.17,419.44c-39.29.69-78.65,1.4-116.89-9.63-11.24-3.24-22.72-7.47-32.41-13.82-13.76-9-19.28-24.38-20.88-40a669.7,669.7,0,0,1-3.45-67.47c0-10.78,3-21.76,6-32.27,2.65-9.33,10.24-15.78,18.58-19.74,9.47-4.49,19.76-9.22,29.95-9.86,30.33-1.91,60.77-2.41,91.17-2.43a409.74,409.74,0,0,1,80.89,8.06,8.94,8.94,0,0,1,1.64.69c.24,2,.47,3.94.73,5.91,2.12,15.84,5.33,31.63,6.14,47.54,1.23,24.38-2.55,48.46-9.6,71.81-4.3,14.23-9.61,28.42-21.93,38-8,6.28-16.84,11.56-25.13,17.52C439,415.19,437.75,417.53,436.17,419.44ZM446.37,369c-5,3.36-9.45,5.55-12.9,8.78-5.71,5.36-11.73,8.7-19.88,8s-16.48-.91-24.73-1c-11.41-.16-22.83,0-34.22,0-1.73,8.19-1.31,9,7.93,9.58,17.67,1.11,35.35,1.84,53,2.79,10.35.55,18.69-3.88,26.1-10.52C446.22,382.54,447.93,377.46,446.37,369ZM470,297.83l.82.33c.15,1.81-.38,4.16.57,5.31,2.63,3.23,5.46,7.22,9,8.37,2,.64,6.59-3.19,8.29-6,3.38-5.65,2.95-12-.44-17.76s-10.45-6.29-14.19-.55C472.11,290.53,471.34,294.36,470,297.83Zm-170-7.08c.31,3.1-.17,5.59.85,7,2,2.71,4.56,6.16,7.42,6.75,2.45.5,6.37-1.93,8.32-4.2,3.77-4.39,3.24-12.78-.14-17.5-4.18-5.83-11.42-5.45-14.52,1C300.73,286.2,300.43,289.07,300,290.75Z" style="fill:#fbeb94"/><path d="M401.45,168.65c-28.88.07-57.25-4-85.36-9.88-21.57-4.53-42.94-10.05-64.48-14.75-4.72-1-6.31-3.36-5.32-7.48,1.39-5.83,2.37-12,5.21-17.17,5.44-9.81,12-19,18.31-28.31.78-1.14,3.16-1.68,4.79-1.66q44.68.5,89.36,1.26c10.44.18,20.87.84,31.31,1.12,18.3.48,36.6.81,54.9,1.26q21.09.52,42.19,1.2c25.11.78,50.23,1.4,75.31,2.69,2.92.15,6.55,3.55,8.32,6.4,8.41,13.54,15.11,27.83,18.12,43.73.95,5-1.05,6-5.1,6.42-27.49,2.77-55,5.74-82.46,8.35-16.36,1.56-32.76,2.74-49.16,3.78C438.75,166.8,420.1,167.65,401.45,168.65Z" style="fill:#272727"/><path d="M501,442.53c6.66.87,13.83,1.64,20.93,2.83A11.2,11.2,0,0,1,527,448.3c17.65,15.87,31.31,34.82,39.63,56.89,9.9,26.27,18.25,53.13,27.12,79.78a45.31,45.31,0,0,1,2,10.6c.38,4.65-1.44,8-6.35,9.6-18.21,5.89-36.74,10.23-55.93,10.46-14,.17-27.93-.74-41.89-1.12-3.43-.1-5.5-1.26-6.17-5.08-2.55-14.57-5.34-29.11-8.14-43.63q-5.43-28.27-11-56.52c-2.76-13.88-7.12-27.66-4.92-42,2.93-19.22,11.17-20,26-23.28C491.59,443.05,496.07,443,501,442.53Z" style="fill:#272727"/><path d="M561.94,36.1C568.2,39,574.69,41.55,580.66,45c18,10.29,35.73,20.88,53.49,31.49a24.32,24.32,0,0,1,8,8c-3.47,0-6.94.09-10.41,0-10.64-.34-21.27-.85-31.92-1.14-17.89-.48-35.79-.8-53.68-1.27-12.45-.32-24.9-.82-37.36-1.16q-47.32-1.26-94.67-2.47c-12-.32-24.1-.84-36.15-1.15-18.5-.47-37-.81-55.5-1.27-14.06-.34-28.17-.24-42.18-1.3-19.15-1.44-38.61.49-57.41-5q.18-.42.39-.81c6.43-.11,12.87-.08,19.29-.34q69.51-2.82,139-5.75c5.25.73,10.5,2.11,15.73,2,5.85-.11,10.69-2.8,12-9.37q-.87-9.09-1.73-18.17c23.93-.1,47.85-.14,71.78-.33C506.89,36.75,534.42,36.4,561.94,36.1Z" style="fill:#282826"/><path d="M436.17,419.44c1.58-1.91,2.85-4.25,4.8-5.65,8.29-6,17.1-11.24,25.13-17.52,12.32-9.62,17.63-23.81,21.93-38,7.05-23.35,10.83-47.43,9.6-71.81-.81-15.91-4-31.7-6.14-47.54-.26-2-.49-3.94-.73-5.91,20.58,4.55,35.56,16.88,47.11,34,9,13.37,13.65,28.11,13.09,44.31-.39,11.46-.25,23-1.58,34.36-2.16,18.38-10.74,33.19-26,44.41C497.35,409.15,468.89,420.44,436.17,419.44Z" style="fill:#eac96b"/><path d="M595.78,166.8c0,6.27.56,11.93-.28,17.38-.33,2.08-3.7,4.94-6,5.26-17.44,2.45-35,4.31-52.44,6.44-15.49,1.88-31,3.94-46.45,5.76a162,162,0,0,1-18,1.39c-27.61.14-55.23-.57-82.82.2-40.31,1.12-79.61-4.44-118.31-15.25-8.67-2.43-17.36-4.76-26.76-7.33.33-7.54.65-14.78,1-22.81,8,1.77,14.34,3.29,20.78,4.59,29,5.9,57.92,13,87.21,17.16,21.16,3,42.9,3,64.34,2.62,23.22-.45,46.42-2.71,69.58-4.66,25.14-2.11,50.23-4.74,75.34-7.22C573.7,169.28,584.36,168,595.78,166.8Z" style="fill:#262626"/><path d="M519.62,430.42c-8-.36-16.06-1.09-24.08-1-14.52.14-28.49,2.13-39.17,13.74-1.31,1.42-4.38,1.77-6.62,1.72-30.79-.66-61.58-1.21-92.35-2.38-14.82-.57-29.94-.83-44.31-4-32.35-7.13-54-27.71-66.53-58.15a129,129,0,0,1-9-66.14c.64-5.16.13-10.47.19-15.71.37-29.12,5.67-57.14,19.45-83.08,2.21-4.16,5.79-7.66,9.08-11.13a6.23,6.23,0,0,1,4.88-1.63c13.67,2.68,27.29,5.65,41.44,8.64-8.61,3.14-17,5.18-24.42,9.13C273,228.57,258.57,238,253.46,256.15c-1.47,5.2-3.05,10.5-3.47,15.84-2.49,31.79-2.49,63.48,5.61,94.65,8.26,31.8,29.73,50.14,61,56.39,17.21,3.44,35,4.23,52.65,5.09,27.32,1.35,54.69,2,82.05,2.45,15.61.27,30.57-3.92,45.38-8.41L493.05,427c4.18,0,7.73-.42,11.15.1C509.39,427.83,514.48,429.27,519.62,430.42Z" style="fill:#a11403"/><path d="M561.94,36.1c-27.52.3-55.05.65-82.57.87-23.93.19-47.85.23-71.78.33l-17.33.05c-12.27.11-24.54.26-36.81.33q-82.72.42-165.43.81c-1.6,0-3.2.21-4.8.31l-5.35-6.19,1.23-2.56c28.18,0,56.36.25,84.53-.05,60.22-.64,120.44-1.57,180.66-2.37,30.62-.41,61.24-.59,91.84-1.36,7.88-.2,15.22.17,21.65,5C559.43,32.56,560.57,34.49,561.94,36.1Z" style="fill:#f0f0ef"/><path d="M534.14,210.52l2.47-.11c4.77,1.65,9.48,2.88,13.32-1.92l2.47-.21,2.31-.15,2.45-.19c4.84,2.2,9.34,1.93,13.33-1.87l2.48-.23c.78,1.09,1.91,2.08,2.28,3.29,2,6.36,3.88,12.73,5.51,19.18,2.35,9.3,4.43,18.66,6.63,28h0c-1.06.5-2.74.72-3.09,1.53-4.71,10.83-10.86,21.39-13.37,32.74-2.74,12.34-2,25.44-2.89,38.2a21.07,21.07,0,0,1-.64,3.1l-1,0L564.7,323V302.24c3-8.14-1.3-15.31-3.19-22.77-.36-1.43-2.06-2.52-3.14-3.77l-.27-1.79q-3.51-5.76-7-11.5l-1.21-2.31-2.48-3.68,0,0-6.06-7.33-6-6-1.3-1.25-1.13-1.13-1.26-1.28,0,0-9.94-7.21L519.63,231c-3-4.66-12.79-9.54-16.94-8.47l-2.36-.58c-1.26-1-2.54-2.05-3.76-3.13s-2.33-2.22-3.5-3.33l2.41-.2c5.17,1.78,10.16,2.3,14.51-1.95l2.5-.24C520,214.79,527.32,214.76,534.14,210.52Z" style="fill:#af1600"/><path d="M456.46,744.91c8.9.65,17.87.79,26.68,2.09,14.9,2.2,14.85,2.51,17.25,17.44.58,3.58,1.25,7.13,1.82,10.71,2.07,12.89-3.8,19.8-16.76,19.92-21,.18-41.92.54-62.88.62-9.7,0-9.7-.17-12.17-10.39.39-.09.88-.06,1.15-.29,14.85-12.07,29.71-24.14,44.44-36.36C456.7,748.07,456.33,746.18,456.46,744.91Z" style="fill:#aecfd7"/><path d="M304.25,753.8c14.89.44,29.78.78,44.66,1.47a5.84,5.84,0,0,1,4.18,3.58c1.36,6.47,1.84,13.12,3.16,19.61,1.49,7.35-2.11,12.28-7.12,16.6a7.91,7.91,0,0,1-4.77,1.69c-24.18.18-48.35.15-72.52.33-7.89.06-5.72-6.67-7.65-10.65a20.07,20.07,0,0,0,3.69-1.81c7.74-6,15.52-12,23-18.33C295.58,762.39,299.82,758,304.25,753.8Z" style="fill:#aeced7"/><path d="M513.13,658.54,538.88,664V652.76c-6.81-5.65-18.27-3.49-23.46-12.5-1.52-2.65-2-5.89-2.85-8.46l64.86-6.92c1,11.58,2.21,23.77,3.13,36a5.15,5.15,0,0,1-2,3.86c-10.51,7.36-20.69,15.34-31.85,21.57-12.66,7.06-11.76,5.5-22.4-3.58-2.44-2.08-4.1-5.21-6.75-6.86C510.27,671.29,512.13,665,513.13,658.54Z" style="fill:#f8f8f8"/><path d="M381.6,62.82q-69.51,2.88-139,5.75c-6.42.26-12.86.23-19.29.34-11.35-.54-12.22.08-14.79,10.86a35.14,35.14,0,0,0-1,5.27c-.73,8.57-1.1,9-9.66,10.37-5.6-6.54-3.47-12.74.67-19,3.17-4.77,6.08-9.71,9.1-14.58,1.37-3.73,3.82-5.34,8-5.5,8.65-.33,17.26-1.52,25.9-1.9,23.75-1,47.51-1.87,71.27-2.72,22.55-.81,45.1-1.53,67.65-2.3,1.33,2.56,2.72,5.1,4,7.69C386,60.22,385.85,62.56,381.6,62.82Z" style="fill:#f4dd4a"/><path d="M380.46,49.42c-22.55.77-45.1,1.49-67.65,2.3-23.76.85-47.52,1.69-71.27,2.72-8.64.38-17.25,1.57-25.9,1.9-4.17.16-6.62,1.77-8,5.5-1.67-2.92-2.72-6.56-5.13-8.61-6.11-5.19-12.82-9.66-19.3-14.43,1.6-.1,3.2-.3,4.8-.31q82.71-.42,165.43-.81c12.27-.07,24.54-.22,36.81-.33l-3.82,6Z" style="fill:#2c2b25"/><path d="M519.62,430.42c-5.14-1.15-10.23-2.59-15.42-3.37-3.42-.52-7-.1-11.15-.1l3.62-4.79,2.47-1c.9.23,2.08.95,2.64.63,7.86-4.57,15.67-9.21,23.38-14,.94-.58,1.21-2.24,1.8-3.41l2.26-1.62,4.92-3.62v0l1.28-1.08.08,0,4.68-3.81,8.61-8.33c.37-.4.75-.79,1.13-1.19l0,0,3.61-4.81,0,0c4.72-2.64,7.6-6.24,6.32-12,.31-.83.62-1.66.94-2.49.8-1.15,2.13-2.22,2.31-3.46,1.17-7.93,2.08-15.89,3.31-25.7l4.67,8.59c.07,1.24.14,2.48.22,3.72-1.43,7-2.43,13.86,3.92,19.26a.86.86,0,0,1,.22.81l2.22,4h0c1.1,2.48,2.62,4.87,3.2,7.46.69,3.09,1.88,7.15.53,9.39-3,5-7.49,9.06-11.3,13.57-1.22,1.45-2.22,3.09-3.31,4.64h0l-7.26,4.83h0l-3.63,2.38-2.27,1.31-1.37,1.07-2.4,1.3c-3.65-1.53-4.24,1-4.84,3.62l-2.36,1.34c-.66-.29-1.49-1-1.94-.82-6.26,2.58-12.47,5.28-18.69,7.95Z" style="fill:#af1600"/><path d="M612.26,359.54c-2.19,5.14-11.82,11.89-16.25,11.39-4.64-.53-9.58-6.72-9.83-14.3-.69-20.24-1.37-40.51-.92-60.74.25-11,5.42-20.88,12-29.65.93-1.24,4.92-2,5.7-1.22,4.86,4.9,9.21,10.31,13.73,15.55-8.71,3.46-14.7,8.6-16,18.95-1.82,14.63-3.08,29.11-1.36,43.85C600.37,351.75,604.44,357,612.26,359.54Z" style="fill:#beb5b1"/><path d="M451.46,649.89c-1.41,0-2.82.05-4.22,0a12,12,0,0,1-2.3-.75c-.08-13.67-1.32-27.55,2.69-41.06,2.8-9.44,9.33-15.55,18.9-19.06,2.5,11.59,4.88,22.69,7.27,33.79-.38,7.28-1,14.56-1,21.85,0,3.87-2,5.09-5.08,5.72H453.07Z" style="fill:#719104"/><path d="M538.44,704V745.1c-9,0-16.79.13-24.56-.17-1,0-2.6-2.35-2.62-3.62-.17-16.86-.11-33.73-.11-51.95C519.94,696.74,526.35,706.94,538.44,704Z" style="fill:#262626"/><path d="M476.13,664l21.32.94v34.78c-7.71,0-15.48,0-23.24,0-3.62,0-7.27,0-10.86-.35-.94-.1-1.73-1.72-2.58-2.64,3.82,0,7.66-.15,11.46.14,4,.29,5.34-1.33,5.11-5.23C476.8,682.45,476.52,673.23,476.13,664Z" style="fill:#e3c46c"/><path d="M612.26,359.54c-7.82-2.58-11.89-7.79-12.88-16.17-1.72-14.74-.46-29.22,1.36-43.85,1.29-10.35,7.28-15.49,16-18.95q2.16,5.4,4.33,10.8c-9,0-9.39,0-10.75,8.75-1.44,9.27-2.88,18.65-2.94,28,0,8.58-1.94,18.65,9.11,23.18Q614.37,355.42,612.26,359.54Z" style="fill:#61280b"/><path d="M616.48,351.29c-11.05-4.53-9.16-14.6-9.11-23.18.06-9.34,1.5-18.72,2.94-28,1.36-8.78,1.71-8.73,10.75-8.75,3,19.32,1.14,38.36-3.44,57.23A19,19,0,0,1,616.48,351.29Z" style="fill:#bdb3af"/><path d="M467.69,650.35c3.12-.63,5.08-1.85,5.08-5.72,0-7.29.65-14.57,1-21.85,6.28,5.84,14.58,4.64,22.07,6.27,1.15.25,2.34.25,5.1.54q.3,9.31.59,18.6c.11,3.67-2.17,4.2-5.15,4C486.84,651.55,477.26,651,467.69,650.35Z" style="fill:#577605"/><path d="M227.7,253.94c-1.86,28.2-3.74,56.84-5.62,85.47l-1.39.24c-1.5-6.33-4-12.62-4.31-19a422.57,422.57,0,0,1-.09-45C216.83,266.82,221.82,259.24,227.7,253.94Z" style="fill:#b3adab"/><path d="M241.4,627.64c-5.93-.48-5.81-5-6.06-9.14-.9-14.63,2.3-28.73,6.08-42.65,4.24-15.59,9.17-31,13.8-46.47l1.47.41Z" style="fill:#262626"/><path d="M607,200.41c-.73,16.35-1.42,32-2.12,47.71l-2.44.29c-1.3-4.18-2.69-8.34-3.89-12.55-2.64-9.27-5.11-18.6-7.82-27.86-1-3.34-.2-4.83,3.38-5.24C598.06,202.32,602,201.36,607,200.41Z" style="fill:#dcdcdc"/><path d="M197.88,95.41c8.56-1.36,8.93-1.8,9.66-10.37a35.14,35.14,0,0,1,1-5.27C211.08,69,212,68.37,223.3,68.91q-.21.39-.39.81c-7.52,1.87-9.34,7.92-9.36,14.29,0,6.66-.83,12.41-4.57,18.4-2.88,4.61-3.21,11-3.85,16.72s-.14,11.25-.31,16.88c-.25,8.16-1.19,8.76-9.48,6.56,1.77-6.3,3.53-12.61,5.33-18.9s.45-11.26-4-13.82C200.64,105.35,198.76,100.34,197.88,95.41Z" style="fill:#d2952c"/><path d="M476.13,664c.39,9.21.67,18.43,1.21,27.63.23,3.9-1.09,5.52-5.11,5.23-3.8-.29-7.64-.11-11.46-.14q0-6-.07-12.09c.14-.1.41-.24.39-.31a4.34,4.34,0,0,0-.36-.83c0-1.23.06-2.46.1-3.7.08-1,.17-2.07.25-3.1.24-4.28.47-8.55.73-13.49Z" style="fill:#f8e792"/><path d="M471.25,712.54q11.07.65,22.16,1.31a4.81,4.81,0,0,1,1.18.22c3.73,1.22,4.42,8.65,2.52,17.52-1.08,5-4.06,3.95-7.18,3.46-6.63-1-13.25-2.16-19.87-3.25l6.31-2.28C474.59,723.72,479.83,716.28,471.25,712.54Z" style="fill:#6d0a02"/><path d="M456.46,744.91c-.13,1.27.24,3.16-.47,3.74-14.73,12.22-29.59,24.29-44.44,36.36-.27.23-.76.2-1.15.29-1.75-4.67-.7-8.29,3.36-11.47,9.9-7.75,19.36-16.08,29.47-23.53C447,747.57,452,746.65,456.46,744.91Z" style="fill:#f1f4f5"/><path d="M304.25,753.8c-4.43,4.18-8.67,8.59-13.33,12.49-7.52,6.29-15.3,12.28-23,18.33a20.07,20.07,0,0,1-3.69,1.81c-1.57-4.23-.69-7.46,3-10.45a263.35,263.35,0,0,0,20.28-17.73C292.47,753.31,297.77,751.92,304.25,753.8Z" style="fill:#f0f0ef"/><path d="M196.64,109.85c4.48,2.56,5.87,7.39,4,13.82s-3.56,12.6-5.33,18.9l-.57.11-.54-.17c-4.73-6.1-6.25-14.59-13.84-18.55Z" style="fill:#f4dd4a"/><path d="M471.25,712.54c8.58,3.74,3.34,11.18,5.12,17l-6.31,2.28-12-.41-1-.81c.3-5,.34-10,1.1-14.88.19-1.25,2.53-2.82,4.08-3.07C465.18,712.15,468.24,712.52,471.25,712.54Z" style="fill:#a11403"/><path d="M571.13,344.69l-4.67-8.59c-1.23,9.81-2.14,17.77-3.31,25.7-.18,1.24-1.51,2.31-2.31,3.46.81-9.94,1.59-19.87,2.47-29.8.36-4.17.92-8.33,1.38-12.49q.84,4.44,1.66,8.88l1,0a21.07,21.07,0,0,0,.64-3.1c.84-12.76.15-25.86,2.89-38.2,2.51-11.35,8.66-21.91,13.37-32.74.35-.81,2-1,3.09-1.53-4.59,10.35-10,20.42-13.56,31.11-5.28,15.88-3.59,32.5-2.84,48.92C571.1,339.13,571.08,341.91,571.13,344.69Z" style="fill:#a11403"/><path d="M350.16,458.21H392C379.62,470.31,355.84,470.15,350.16,458.21Z" style="fill:#e4cf4d"/><path d="M180.39,124c7.59,4,9.11,12.45,13.84,18.55-9-.34-16.87-2.71-21.5-12.19Z" style="fill:#d2952c"/><path d="M587.39,256.31c-2.2-9.34-4.28-18.7-6.63-28-1.63-6.45-3.55-12.82-5.51-19.18-.37-1.21-1.5-2.2-2.28-3.29,1.46.65,4,1,4.22,2,4,15.25,7.67,30.57,11.32,45.9C588.68,254.47,587.79,255.44,587.39,256.31Z" style="fill:#a11403"/><path d="M566.84,407.58c1.09-1.55,2.09-3.19,3.31-4.64,3.81-4.51,8.29-8.59,11.3-13.57,1.35-2.24.16-6.3-.53-9.39-.58-2.59-2.1-5-3.2-7.46,9.35,8.66,10.2,13,2.57,23C576.68,400.19,571.37,403.59,566.84,407.58Z" style="fill:#a11403"/><path d="M527,404.32c-.59,1.17-.86,2.83-1.8,3.41-7.71,4.82-15.52,9.46-23.38,14-.56.32-1.74-.4-2.64-.63Z" style="fill:#a11403"/><path d="M558.37,275.7c1.08,1.25,2.78,2.34,3.14,3.77,1.89,7.46,6.16,14.63,3.19,22.77Z" style="fill:#a11403"/><path d="M522.07,430.57c6.22-2.67,12.43-5.37,18.69-7.95.45-.19,1.28.53,1.94.82C536.44,427.61,530.28,432.05,522.07,430.57Z" style="fill:#a11403"/><path d="M534.14,210.52c-6.82,4.24-14.13,4.27-21.65,2.57Z" style="fill:#a11403"/><path d="M502.69,222.52c4.15-1.07,13.9,3.81,16.94,8.47Z" style="fill:#a11403"/><path d="M493.07,215.48c1.17,1.11,2.3,2.26,3.5,3.33s2.5,2.09,3.76,3.13l-14.82-4.62c0-.49,0-1,0-1.46Z" style="fill:#a11403"/><path d="M575.27,367.67c-6.35-5.4-5.35-12.28-3.92-19.26Q573.3,358,575.27,367.67Z" style="fill:#a11403"/><path d="M510,213.33c-4.35,4.25-9.34,3.73-14.51,1.95Z" style="fill:#a11403"/><path d="M549.93,208.49c-3.84,4.8-8.55,3.57-13.32,1.92Z" style="fill:#a11403"/><path d="M570.49,206.07c-4,3.8-8.49,4.07-13.33,1.87Z" style="fill:#a11403"/><path d="M559.9,367.75c1.28,5.79-1.6,9.39-6.32,12Q556.73,373.77,559.9,367.75Z" style="fill:#a11403"/><path d="M551.06,262.41q3.53,5.74,7,11.5Z" style="fill:#a11403"/><path d="M521.75,232.28l9.94,7.21Z" style="fill:#a11403"/><path d="M541.34,249.12l6.06,7.33Z" style="fill:#a11403"/><path d="M559.57,412.42l7.26-4.83Z" style="fill:#a11403"/><path d="M545.06,422.1c.6-2.57,1.19-5.15,4.84-3.62Z" style="fill:#a11403"/><path d="M534.14,399.08l-4.92,3.62Z" style="fill:#a11403"/><path d="M553.55,379.81l-3.61,4.81Z" style="fill:#a11403"/><path d="M540.17,394.16,535.49,398Z" style="fill:#a11403"/><path d="M577.71,372.51l-2.22-4Z" style="fill:#a11403"/><path d="M555.94,414.8l3.63-2.38Z" style="fill:#a11403"/><path d="M547.37,256.42l2.48,3.68C549,258.87,548.19,257.65,547.37,256.42Z" style="fill:#a11403"/><path d="M554.71,208.13l-2.31.15Z" style="fill:#a11403"/><path d="M461.08,676.71l-.25,3.1Z" style="fill:#e3c46c"/><path d="M451.46,649.89l1.61.45Z" style="fill:#577605"/><path d="M552.3,417.18l1.37-1.07Z" style="fill:#a11403"/><path d="M534.06,241.86l1.3,1.25Z" style="fill:#a11403"/><path d="M531.67,239.45l1.26,1.28Z" style="fill:#a11403"/><path d="M457.07,730.58l1,.81Z" style="fill:#6d0a02"/><path d="M549.91,384.64c-.38.4-.76.79-1.13,1.19C549.15,385.43,549.53,385,549.91,384.64Z" style="fill:#a11403"/><path d="M535.41,398l-1.28,1.08Z" style="fill:#a11403"/><path d="M460.73,683.51a4.34,4.34,0,0,1,.36.83c0,.07-.25.21-.39.31Z" style="fill:#e3c46c"/><path d="M446.37,369c1.56,8.43-.15,13.51-4.67,17.55-7.41,6.64-15.75,11.07-26.1,10.52-17.68-1-35.36-1.68-53-2.79-9.24-.58-9.66-1.39-7.93-9.58,11.39,0,22.81-.12,34.22,0,8.25.12,16.52.33,24.73,1s14.17-2.63,19.88-8C436.92,374.58,441.34,372.39,446.37,369Z" style="fill:#070502"/><path d="M470,297.83c1.33-3.47,2.1-7.3,4.09-10.34,3.74-5.74,10.72-5.35,14.19.55s3.82,12.11.44,17.76c-1.7,2.85-6.3,6.68-8.29,6-3.58-1.15-6.41-5.14-9-8.37-.95-1.15-.42-3.5-.57-5.31Z" style="fill:#070502"/><path d="M300,290.75c.45-1.68.75-4.55,1.93-7,3.1-6.42,10.34-6.8,14.52-1,3.38,4.72,3.91,13.11.14,17.5-1.95,2.27-5.87,4.7-8.32,4.2-2.86-.59-5.42-4-7.42-6.75C299.81,296.34,300.29,293.85,300,290.75Z" style="fill:#070502"/><path d="M380.46,49.42l6-6.05,22.88,12.1c-1.3,6.57-6.14,9.26-12,9.37-5.23.09-10.48-1.29-15.73-2,4.25-.26,4.41-2.6,2.86-5.71C383.18,54.52,381.79,52,380.46,49.42Z" style="fill:#d2952c"/><path d="M409.32,55.47l-22.88-12.1,3.82-6,17.33-.05Q408.46,46.39,409.32,55.47Z" style="fill:#f4dd4a"/></svg>